<svg xmlns="http://www.w3.org/2000/svg" viewBox="0 0 200 200" width="200" height="200">
  <defs>
    <linearGradient id="kotlinGrad" x1="0%" y1="100%" x2="100%" y2="0%">
      <stop offset="0%" style="stop-color:#7F52FF" />
      <stop offset="50%" style="stop-color:#C757BC" />
      <stop offset="100%" style="stop-color:#E44857" />
    </linearGradient>
  </defs>
  
  <circle cx="100" cy="100" r="95" fill="url(#kotlinGrad)"/>
  
  <path d="M70 50 Q70 20 100 20 Q130 20 130 50 L130 65 L70 65 Z" fill="white" />
  <rect x="65" y="60" width="70" height="10" rx="2" fill="#EEE"/>

  <path d="M50 140 Q50 100 100 100 Q150 100 150 140 L150 160 Q100 160 100 170 Q100 160 50 160 Z" fill="white"/>
  <line x1="100" y1="100" x2="100" y2="170" stroke="#C757BC" stroke-width="1.5"/>
  
  <path d="M115 115 L130 115 L115 130 Z" fill="#7F52FF" opacity="0.8"/>
  
  <text x="55" y="85" font-family="monospace" font-size="14" fill="white" font-weight="bold">{ }</text>
  <text x="92" y="85" font-family="monospace" font-size="14" fill="white" font-weight="bold">val</text>
  <text x="130" y="85" font-family="monospace" font-size="14" fill="white" font-weight="bold">fun</text>

  <text x="100" y="190" font-family="Verdana" font-size="12" fill="white" text-anchor="middle" font-weight="bold" letter-spacing="1">cook.kt</text>
</svg>
